<svg width="154" height="73" viewBox="0 0 154 73" fill="none" xmlns="http://www.w3.org/2000/svg">
<rect width="56" height="56" rx="8" fill="#EEF6FF"/>
<path fill-rule="evenodd" clip-rule="evenodd" d="M42.7475 39.5833H14.4242V14.2083C14.4242 13.5409 13.8816 13 13.2121 13C12.5426 13 12 13.5409 12 14.2083V40.7917C12 41.4591 12.5426 42 13.2121 42H42.7475C43.417 42 43.9596 41.4591 43.9596 40.7917C43.9596 40.1243 43.417 39.5833 42.7475 39.5833ZM39.8939 18.5986H33.697C33.0275 18.5986 32.4848 18.0577 32.4848 17.3903C32.4848 16.7229 33.0275 16.182 33.697 16.182H42.7878C43.4573 16.182 44 16.7229 44 17.3903V17.4197C44 17.4269 44 17.4342 44 17.4415V26.4528C44 27.1202 43.4574 27.6615 42.7879 27.6615C42.1184 27.6615 41.5758 27.1202 41.5758 26.4532V20.3396L33.5826 28.2757C33.1083 28.7458 32.3434 28.7454 31.8703 28.2737L29.2121 25.6243L19.2812 35.5237C19.0449 35.7598 18.7341 35.8778 18.4242 35.8778C18.1139 35.8778 17.8036 35.7598 17.5672 35.5237C17.0937 35.0521 17.0937 34.2868 17.5672 33.8152L28.3551 23.061C28.8287 22.5889 29.5955 22.5893 30.069 23.061L32.7288 25.7124L39.8939 18.5986Z" fill="#333333"/>
<path d="M88.24 40H82.08L92.28 18.76H80.8V13.8H98.4V18.76L88.24 40ZM116.139 32.8C116.139 35.04 115.285 36.84 113.579 38.2C111.899 39.5333 109.539 40.2 106.499 40.2C103.645 40.2 101.285 39.7467 99.4188 38.84V33.24C101.552 34.4133 103.752 35 106.019 35C107.325 35 108.339 34.72 109.059 34.16C109.805 33.6 110.179 32.8933 110.179 32.04C110.179 30.0933 108.379 29.12 104.779 29.12H103.379V24.32H104.779C106.192 24.32 107.352 24.08 108.259 23.6C109.165 23.12 109.619 22.4 109.619 21.44C109.619 19.6 108.419 18.68 106.019 18.68C104.179 18.68 102.325 19.2533 100.459 20.4V14.96C102.432 13.9733 104.419 13.48 106.419 13.48C109.245 13.48 111.485 14.16 113.139 15.52C114.792 16.8533 115.619 18.6 115.619 20.76C115.619 23.72 114.272 25.76 111.579 26.88C114.619 27.6 116.139 29.5733 116.139 32.8ZM130.875 40.04H125.635L140.795 11.72H146.075L130.875 40.04ZM131.315 13.36C132.808 14.8267 133.555 16.6133 133.555 18.72C133.555 20.8267 132.808 22.6267 131.315 24.12C129.848 25.5867 128.061 26.32 125.955 26.32C123.848 26.32 122.048 25.5867 120.555 24.12C119.088 22.6267 118.355 20.8267 118.355 18.72C118.355 16.6133 119.088 14.8267 120.555 13.36C122.048 11.8667 123.848 11.12 125.955 11.12C128.061 11.12 129.848 11.8667 131.315 13.36ZM123.875 16.68C123.315 17.24 123.035 17.92 123.035 18.72C123.035 19.52 123.315 20.2133 123.875 20.8C124.461 21.36 125.155 21.64 125.955 21.64C126.755 21.64 127.435 21.36 127.995 20.8C128.581 20.2133 128.875 19.52 128.875 18.72C128.875 17.92 128.581 17.24 127.995 16.68C127.435 16.0933 126.755 15.8 125.955 15.8C125.155 15.8 124.461 16.0933 123.875 16.68ZM151.435 27.36C152.928 28.8267 153.675 30.6133 153.675 32.72C153.675 34.8267 152.928 36.6267 151.435 38.12C149.968 39.5867 148.181 40.32 146.075 40.32C143.968 40.32 142.168 39.5867 140.675 38.12C139.208 36.6267 138.475 34.8267 138.475 32.72C138.475 30.6133 139.208 28.8267 140.675 27.36C142.168 25.8667 143.968 25.12 146.075 25.12C148.181 25.12 149.968 25.8667 151.435 27.36ZM143.995 30.68C143.435 31.24 143.155 31.92 143.155 32.72C143.155 33.52 143.435 34.2133 143.995 34.8C144.581 35.36 145.275 35.64 146.075 35.64C146.875 35.64 147.555 35.36 148.115 34.8C148.701 34.2133 148.995 33.52 148.995 32.72C148.995 31.92 148.701 31.24 148.115 30.68C147.555 30.0933 146.875 29.8 146.075 29.8C145.275 29.8 144.581 30.0933 143.995 30.68Z" fill="#333333"/>
<path d="M85.12 61.28C87.008 61.28 88.368 62.0267 89.2 63.52L88.096 64.416C87.776 63.712 87.392 63.216 86.944 62.928C86.5067 62.6293 85.904 62.48 85.136 62.48C84.3253 62.48 83.6853 62.6507 83.216 62.992C82.7573 63.3227 82.528 63.7493 82.528 64.272C82.528 64.6133 82.6187 64.896 82.8 65.12C82.9813 65.344 83.28 65.5413 83.696 65.712C84.1227 65.872 84.7093 66.016 85.456 66.144C86.8533 66.3787 87.84 66.7307 88.416 67.2C89.0027 67.6693 89.296 68.32 89.296 69.152C89.296 69.7493 89.1253 70.2773 88.784 70.736C88.4533 71.184 87.9787 71.536 87.36 71.792C86.7413 72.0373 86.0267 72.16 85.216 72.16C84.1493 72.16 83.2373 71.952 82.48 71.536C81.7333 71.12 81.1627 70.5653 80.768 69.872L81.872 68.976C82.16 69.6053 82.5813 70.096 83.136 70.448C83.7013 70.7893 84.4053 70.96 85.248 70.96C86.08 70.96 86.7413 70.8107 87.232 70.512C87.7227 70.2027 87.968 69.7707 87.968 69.216C87.968 68.7467 87.7547 68.3733 87.328 68.096C86.9013 67.8187 86.144 67.584 85.056 67.392C83.648 67.1467 82.6507 66.7947 82.064 66.336C81.4773 65.8773 81.184 65.2373 81.184 64.416C81.184 63.8507 81.344 63.328 81.664 62.848C81.984 62.368 82.4427 61.9893 83.04 61.712C83.6373 61.424 84.3307 61.28 85.12 61.28ZM98.5879 64V72H97.4679L97.3879 70.784C96.8545 71.7013 95.8999 72.16 94.5239 72.16C93.6599 72.16 92.9505 71.92 92.3959 71.44C91.8519 70.96 91.5799 70.224 91.5799 69.232V64H92.8599V68.896C92.8599 69.6747 93.0199 70.2293 93.3399 70.56C93.6599 70.88 94.1292 71.04 94.7479 71.04C95.4839 71.04 96.0919 70.816 96.5719 70.368C97.0625 69.92 97.3079 69.248 97.3079 68.352V64H98.5879ZM104.942 63.84C105.742 63.84 106.414 64.0267 106.958 64.4C107.513 64.7627 107.945 65.2853 108.254 65.968L107.038 66.544C106.697 65.488 105.987 64.96 104.91 64.96C104.11 64.96 103.481 65.232 103.022 65.776C102.574 66.3093 102.35 67.0507 102.35 68C102.35 68.9493 102.574 69.696 103.022 70.24C103.481 70.7733 104.11 71.04 104.91 71.04C105.529 71.04 106.025 70.9013 106.398 70.624C106.782 70.336 107.033 69.9253 107.15 69.392L108.334 69.808C108.057 70.5547 107.63 71.136 107.054 71.552C106.478 71.9573 105.774 72.16 104.942 72.16C103.737 72.16 102.787 71.792 102.094 71.056C101.411 70.32 101.07 69.3013 101.07 68C101.07 66.6987 101.411 65.68 102.094 64.944C102.787 64.208 103.737 63.84 104.942 63.84ZM113.973 63.84C114.773 63.84 115.445 64.0267 115.989 64.4C116.544 64.7627 116.976 65.2853 117.285 65.968L116.069 66.544C115.728 65.488 115.019 64.96 113.941 64.96C113.141 64.96 112.512 65.232 112.053 65.776C111.605 66.3093 111.381 67.0507 111.381 68C111.381 68.9493 111.605 69.696 112.053 70.24C112.512 70.7733 113.141 71.04 113.941 71.04C114.56 71.04 115.056 70.9013 115.429 70.624C115.813 70.336 116.064 69.9253 116.181 69.392L117.365 69.808C117.088 70.5547 116.661 71.136 116.085 71.552C115.509 71.9573 114.805 72.16 113.973 72.16C112.768 72.16 111.819 71.792 111.125 71.056C110.443 70.32 110.101 69.3013 110.101 68C110.101 66.6987 110.443 65.68 111.125 64.944C111.819 64.208 112.768 63.84 113.973 63.84ZM126.493 67.584C126.493 67.8827 126.471 68.1813 126.429 68.48H120.397C120.471 69.2907 120.738 69.92 121.197 70.368C121.666 70.816 122.269 71.04 123.005 71.04C123.591 71.04 124.077 70.9387 124.461 70.736C124.855 70.5333 125.122 70.24 125.261 69.856L126.333 70.416C126.013 70.9813 125.586 71.4133 125.053 71.712C124.519 72.0107 123.837 72.16 123.005 72.16C121.799 72.16 120.85 71.792 120.157 71.056C119.474 70.32 119.133 69.3013 119.133 68C119.133 66.6987 119.458 65.68 120.109 64.944C120.77 64.208 121.703 63.84 122.909 63.84C123.655 63.84 124.301 64.0053 124.845 64.336C125.389 64.6667 125.799 65.1147 126.077 65.68C126.354 66.2453 126.493 66.88 126.493 67.584ZM122.909 64.96C122.205 64.96 121.634 65.168 121.197 65.584C120.77 66 120.509 66.5867 120.413 67.344H125.261C125.175 66.5973 124.93 66.016 124.525 65.6C124.119 65.1733 123.581 64.96 122.909 64.96ZM130.751 64H133.423V65.104H130.751V72H129.471V65.104H127.871V64H129.471V62.656C129.471 61.92 129.695 61.3333 130.143 60.896C130.591 60.4587 131.242 60.24 132.095 60.24C132.383 60.24 132.645 60.272 132.879 60.336C133.125 60.4 133.317 60.4907 133.455 60.608L133.119 61.648C132.863 61.488 132.559 61.408 132.207 61.408C131.237 61.408 130.751 61.8667 130.751 62.784V64ZM142.057 64V72H140.937L140.857 70.784C140.323 71.7013 139.369 72.16 137.993 72.16C137.129 72.16 136.419 71.92 135.865 71.44C135.321 70.96 135.049 70.224 135.049 69.232V64H136.329V68.896C136.329 69.6747 136.489 70.2293 136.809 70.56C137.129 70.88 137.598 71.04 138.217 71.04C138.953 71.04 139.561 70.816 140.041 70.368C140.531 69.92 140.777 69.248 140.777 68.352V64H142.057ZM146.251 69.856C146.251 70.2613 146.31 70.544 146.427 70.704C146.555 70.8533 146.784 70.928 147.115 70.928C147.339 70.928 147.531 70.912 147.691 70.88C147.862 70.848 148.059 70.7893 148.283 70.704L148.075 71.936C147.723 72.0853 147.328 72.16 146.891 72.16C146.24 72.16 145.755 71.984 145.435 71.632C145.126 71.28 144.971 70.7413 144.971 70.016V60.32H146.251V69.856Z" fill="#333333" fill-opacity="0.496405"/>
</svg>
