<svg width="143" height="73" viewBox="0 0 143 73" fill="none" xmlns="http://www.w3.org/2000/svg">
<rect width="56" height="56" rx="8" fill="#FFFAEA"/>
<path fill-rule="evenodd" clip-rule="evenodd" d="M25 22.4249H31C32.2866 22.4249 33.3333 21.3652 33.3333 20.0625V19.7251H40.3333C41.252 19.7251 42 20.4822 42 21.4124V38.2874C42 39.2176 41.252 39.975 40.3333 39.975H15.6667C14.748 39.975 14 39.2176 14 38.2874V21.4124C14 20.4822 14.748 19.7251 15.6667 19.7251H22.6667V20.0625C22.6667 21.3652 23.7134 22.4249 25 22.4249ZM31.3333 20.0625V18.7126V17.3624C31.3333 17.1763 31.1841 17.025 31 17.025H25C24.8159 17.025 24.6667 17.1763 24.6667 17.3624V18.7126V20.0625C24.6667 20.2489 24.8159 20.3999 25 20.3999H31C31.1841 20.3999 31.3333 20.2489 31.3333 20.0625ZM22.6667 17.3624V17.7001H15.6667C13.644 17.7001 12 19.3644 12 21.4124V38.2874C12 40.3354 13.644 42 15.6667 42H40.3333C42.356 42 44 40.3354 44 38.2874V21.4124C44 19.3644 42.356 17.7001 40.3333 17.7001H33.3333V17.3624C33.3333 16.0597 32.2866 15 31 15H25C23.7134 15 22.6667 16.0597 22.6667 17.3624ZM22 31.2C20.1626 31.2 18.6667 29.6852 18.6667 27.825C18.6667 25.9647 20.1626 24.4499 22 24.4499C23.8374 24.4499 25.3333 25.9647 25.3333 27.825C25.3333 29.6852 23.8374 31.2 22 31.2ZM22 26.4749C21.2654 26.4749 20.6667 27.081 20.6667 27.825C20.6667 28.5688 21.2654 29.175 22 29.175C22.7346 29.175 23.3333 28.5688 23.3333 27.825C23.3333 27.081 22.7346 26.4749 22 26.4749ZM27 37.95C26.448 37.95 26 37.4964 26 36.9375V36.2624C26 35.3323 25.252 34.5749 24.3333 34.5749H19.6667C18.748 34.5749 18 35.3323 18 36.2624V36.9375C18 37.4964 17.552 37.95 17 37.95C16.448 37.95 16 37.4964 16 36.9375V36.2624C16 34.2145 17.644 32.5499 19.6667 32.5499H24.3333C26.356 32.5499 28 34.2145 28 36.2624V36.9375C28 37.4964 27.552 37.95 27 37.95ZM31.6667 27.15H39C39.552 27.15 40 26.6964 40 26.1375C40 25.5786 39.552 25.125 39 25.125H31.6667C31.1147 25.125 30.6667 25.5786 30.6667 26.1375C30.6667 26.6964 31.1147 27.15 31.6667 27.15ZM39 32.5499H31.6667C31.1147 32.5499 30.6667 32.0963 30.6667 31.5374C30.6667 30.9785 31.1147 30.5249 31.6667 30.5249H39C39.552 30.5249 40 30.9785 40 31.5374C40 32.0963 39.552 32.5499 39 32.5499ZM31.6667 37.95H39C39.552 37.95 40 37.4964 40 36.9375C40 36.3786 39.552 35.925 39 35.925H31.6667C31.1147 35.925 30.6667 36.3786 30.6667 36.9375C30.6667 37.4964 31.1147 37.95 31.6667 37.95Z" fill="#333333"/>
<path d="M86.92 29.48H92.68V17.64L86.92 29.48ZM98.48 40H92.68V34.44H81.2V29.48L89.2 13.76H98.48V29.48H101.68V34.44H98.48V40ZM120.101 40H102.661V35.48C105.541 33.5067 108.074 31.32 110.261 28.92C112.474 26.52 113.581 24.4 113.581 22.56C113.581 21.44 113.248 20.56 112.581 19.92C111.914 19.2533 110.901 18.92 109.541 18.92C107.274 18.92 105.128 19.76 103.101 21.44V15.8C103.981 15.16 105.128 14.6133 106.541 14.16C107.954 13.7067 109.341 13.48 110.701 13.48C113.421 13.48 115.581 14.2 117.181 15.64C118.808 17.0533 119.621 19.04 119.621 21.6C119.621 26.2133 116.688 30.6933 110.821 35.04H120.101V40ZM142.26 29.04H134.94V36.24H129.58V29.04H122.3V23.84H129.58V16.6H134.94V23.84H142.26V29.04Z" fill="#333333"/>
<path d="M90.24 69.296C89.9093 70.192 89.3653 70.896 88.608 71.408C87.8507 71.9093 86.976 72.16 85.984 72.16C84.992 72.16 84.128 71.9413 83.392 71.504C82.656 71.056 82.0853 70.4267 81.68 69.616C81.2853 68.7947 81.088 67.8293 81.088 66.72C81.088 65.6213 81.2853 64.6613 81.68 63.84C82.0853 63.0187 82.656 62.3893 83.392 61.952C84.128 61.504 84.9813 61.28 85.952 61.28C86.9653 61.28 87.8133 61.488 88.496 61.904C89.1893 62.32 89.7067 62.9333 90.048 63.744L88.784 64.336C88.5493 63.7173 88.208 63.2533 87.76 62.944C87.312 62.6347 86.7413 62.48 86.048 62.48C85.3227 62.48 84.688 62.6507 84.144 62.992C83.6 63.3227 83.1787 63.808 82.88 64.448C82.5813 65.088 82.432 65.8453 82.432 66.72C82.432 68.0427 82.7467 69.0827 83.376 69.84C84.016 70.5867 84.8853 70.96 85.984 70.96C86.6987 70.96 87.3173 70.7787 87.84 70.416C88.3627 70.0533 88.736 69.52 88.96 68.816L90.24 69.296ZM93.6728 69.856C93.6728 70.2613 93.7314 70.544 93.8488 70.704C93.9768 70.8533 94.2061 70.928 94.5368 70.928C94.7608 70.928 94.9528 70.912 95.1128 70.88C95.2834 70.848 95.4808 70.7893 95.7048 70.704L95.4968 71.936C95.1448 72.0853 94.7501 72.16 94.3128 72.16C93.6621 72.16 93.1768 71.984 92.8568 71.632C92.5474 71.28 92.3928 70.7413 92.3928 70.016V60.32H93.6728V69.856ZM97.9874 62.464C97.6994 62.464 97.4647 62.3787 97.2834 62.208C97.1127 62.0267 97.0274 61.792 97.0274 61.504C97.0274 61.216 97.1127 60.9867 97.2834 60.816C97.4647 60.6347 97.6994 60.544 97.9874 60.544C98.2754 60.544 98.5047 60.6347 98.6754 60.816C98.8567 60.9867 98.9474 61.216 98.9474 61.504C98.9474 61.792 98.8567 62.0267 98.6754 62.208C98.5047 62.3787 98.2754 62.464 97.9874 62.464ZM98.6274 72H97.3474V64H98.6274V72ZM108.461 67.584C108.461 67.8827 108.44 68.1813 108.397 68.48H102.365C102.44 69.2907 102.707 69.92 103.165 70.368C103.635 70.816 104.237 71.04 104.973 71.04C105.56 71.04 106.045 70.9387 106.429 70.736C106.824 70.5333 107.091 70.24 107.229 69.856L108.301 70.416C107.981 70.9813 107.555 71.4133 107.021 71.712C106.488 72.0107 105.805 72.16 104.973 72.16C103.768 72.16 102.819 71.792 102.125 71.056C101.443 70.32 101.101 69.3013 101.101 68C101.101 66.6987 101.427 65.68 102.077 64.944C102.739 64.208 103.672 63.84 104.877 63.84C105.624 63.84 106.269 64.0053 106.813 64.336C107.357 64.6667 107.768 65.1147 108.045 65.68C108.323 66.2453 108.461 66.88 108.461 67.584ZM104.877 64.96C104.173 64.96 103.603 65.168 103.165 65.584C102.739 66 102.477 66.5867 102.381 67.344H107.229C107.144 66.5973 106.899 66.016 106.493 65.6C106.088 65.1733 105.549 64.96 104.877 64.96ZM114.782 63.84C115.689 63.84 116.436 64.1013 117.022 64.624C117.609 65.1467 117.902 65.8987 117.902 66.88V72H116.622V67.328C116.622 66.496 116.441 65.8933 116.078 65.52C115.726 65.1467 115.252 64.96 114.654 64.96C114.228 64.96 113.828 65.056 113.454 65.248C113.081 65.4293 112.772 65.7333 112.526 66.16C112.292 66.576 112.174 67.104 112.174 67.744V72H110.894V64H112.014L112.094 65.248C112.361 64.768 112.729 64.416 113.198 64.192C113.668 63.9573 114.196 63.84 114.782 63.84ZM125.587 71.44C125.054 71.92 124.366 72.16 123.523 72.16C122.872 72.16 122.339 71.984 121.923 71.632C121.518 71.28 121.31 70.7413 121.299 70.016V65.104H119.699V64H121.299V62.08L122.579 61.728V64H125.539V65.104H122.579V69.792C122.579 70.176 122.686 70.4693 122.899 70.672C123.123 70.864 123.416 70.96 123.779 70.96C124.291 70.96 124.744 70.7627 125.139 70.368L125.587 71.44ZM130.114 72.16C129.346 72.16 128.653 72.0107 128.034 71.712C127.416 71.4027 126.962 70.9493 126.674 70.352L127.714 69.632C127.896 70.1013 128.21 70.4533 128.658 70.688C129.106 70.9227 129.634 71.04 130.242 71.04C130.872 71.04 131.352 70.928 131.682 70.704C132.013 70.48 132.178 70.1973 132.178 69.856C132.178 69.5467 132.024 69.3013 131.714 69.12C131.405 68.928 130.861 68.7627 130.082 68.624C129.314 68.4853 128.706 68.32 128.258 68.128C127.81 67.9253 127.485 67.6747 127.282 67.376C127.08 67.0667 126.978 66.688 126.978 66.24C126.978 65.8027 127.106 65.4027 127.362 65.04C127.618 64.6773 127.986 64.3893 128.466 64.176C128.946 63.952 129.501 63.84 130.13 63.84C130.984 63.84 131.666 64 132.178 64.32C132.701 64.6293 133.074 65.1093 133.298 65.76L132.21 66.4C132.04 65.888 131.778 65.52 131.426 65.296C131.085 65.072 130.653 64.96 130.13 64.96C129.608 64.96 129.165 65.0773 128.802 65.312C128.44 65.5467 128.258 65.8187 128.258 66.128C128.258 66.48 128.413 66.752 128.722 66.944C129.042 67.136 129.608 67.3013 130.418 67.44C131.528 67.6213 132.312 67.8933 132.77 68.256C133.229 68.6187 133.458 69.1307 133.458 69.792C133.458 70.2507 133.32 70.6613 133.042 71.024C132.776 71.376 132.386 71.6533 131.874 71.856C131.373 72.0587 130.786 72.16 130.114 72.16Z" fill="#333333" fill-opacity="0.496405"/>
</svg>
