<svg width="594" height="477" viewBox="0 0 594 477" fill="none" xmlns="http://www.w3.org/2000/svg">
<rect x="58" y="138" width="520" height="326" rx="12" fill="#FBD34B"/>
<rect x="44" y="317" width="132" height="160" rx="8" fill="#F07566"/>
<path d="M74 12.8C74 8.31958 74 6.07937 74.8719 4.36808C75.6389 2.86278 76.8628 1.63893 78.3681 0.871948C80.0794 0 82.3196 0 86.8 0H434C490.005 0 518.008 0 539.399 10.8993C558.215 20.4867 573.513 35.7847 583.101 54.6009C594 75.9921 594 103.995 594 160V435.2C594 439.68 594 441.921 593.128 443.632C592.361 445.137 591.137 446.361 589.632 447.128C587.921 448 585.68 448 581.2 448H86.8C82.3196 448 80.0794 448 78.3681 447.128C76.8628 446.361 75.6389 445.137 74.8719 443.632C74 441.921 74 439.68 74 435.2V12.8Z" fill="#D8D8D8"/>
<mask id="mask0_0_1" style="mask-type:luminance" maskUnits="userSpaceOnUse" x="74" y="0" width="520" height="448">
<path d="M74 12.8C74 8.31958 74 6.07937 74.8719 4.36808C75.6389 2.86278 76.8628 1.63893 78.3681 0.871948C80.0794 0 82.3196 0 86.8 0H434C490.005 0 518.008 0 539.399 10.8993C558.215 20.4867 573.513 35.7847 583.101 54.6009C594 75.9921 594 103.995 594 160V435.2C594 439.68 594 441.921 593.128 443.632C592.361 445.137 591.137 446.361 589.632 447.128C587.921 448 585.68 448 581.2 448H86.8C82.3196 448 80.0794 448 78.3681 447.128C76.8628 446.361 75.6389 445.137 74.8719 443.632C74 441.921 74 439.68 74 435.2V12.8Z" fill="white"/>
</mask>
<g mask="url(#mask0_0_1)">
</g>
<g filter="url(#filter0_d_0_1)">
<path fill-rule="evenodd" clip-rule="evenodd" d="M74 164C46.3858 164 24 141.614 24 114C24 86.3858 46.3858 64 74 64C101.614 64 124 86.3858 124 114V156C124 160.418 120.418 164 116 164H74Z" fill="#4DB282"/>
</g>
<path fill-rule="evenodd" clip-rule="evenodd" d="M55.9685 102.7V100H96V132H55.9684V129.271H52.9352C51.1974 129.271 49.7492 128.016 49.4916 126.288L48.0386 116.538C47.888 115.527 48.1823 114.505 48.846 113.731C49.4964 112.974 50.4355 112.534 51.4292 112.519L51.4289 112.518H51.4821H52.0905C51.4022 111.496 50.9998 110.265 50.9998 108.941C50.9998 105.897 53.128 103.345 55.9685 102.7ZM53.8123 108.941C53.8123 110.412 54.7016 111.678 55.9685 112.227V105.656C54.7016 106.204 53.8123 107.47 53.8123 108.941ZM55.9685 115.341V120.605L54.8832 115.341H55.9685ZM52.9353 126.447H55.9686V123.812H53.7577L52.0112 115.341H51.4822C51.2166 115.341 51.0515 115.487 50.9768 115.574C50.9011 115.663 50.78 115.851 50.8202 116.12L52.2732 125.87C52.3231 126.205 52.6014 126.447 52.9353 126.447V126.447ZM93.1875 129.177H58.781V102.824H93.1875V129.177ZM64.4661 107.925C64.536 107.97 64.6061 107.998 64.6761 108.008C64.7461 108.018 64.7962 108.023 64.8262 108.023V110.025C64.5262 110.025 64.2011 109.995 63.8512 109.935C63.5011 109.875 63.1812 109.769 62.8912 109.619C62.6011 109.468 62.3588 109.263 62.1636 109.001C61.9686 108.74 61.8711 108.404 61.8711 107.992V105.854H64.1811V107.42C64.191 107.561 64.2236 107.669 64.2786 107.744C64.3335 107.819 64.3961 107.88 64.4661 107.925ZM68.4111 108.008C68.3411 107.998 68.271 107.97 68.2012 107.925C68.1311 107.88 68.0686 107.819 68.0137 107.744C67.9586 107.669 67.926 107.561 67.9162 107.42V105.854H65.6061V107.992C65.6061 108.404 65.7036 108.74 65.8986 109.001C66.0937 109.263 66.3361 109.468 66.6262 109.619C66.9162 109.769 67.2361 109.875 67.5862 109.935C67.9361 109.995 68.2612 110.025 68.5612 110.025V108.023C68.5312 108.023 68.4811 108.018 68.4111 108.008ZM85.335 122.261C85.6249 122.411 85.8675 122.62 86.0627 122.886C86.2577 123.152 86.3552 123.486 86.3552 123.887V126.025H84.0451V124.459C84.0351 124.329 84.0024 124.223 83.9476 124.143C83.8926 124.063 83.8299 124 83.7601 123.955C83.6901 123.91 83.6199 123.882 83.5501 123.872C83.4801 123.862 83.4301 123.857 83.4001 123.857V121.854C83.7001 121.854 84.0249 121.884 84.3751 121.944C84.725 122.005 85.0448 122.11 85.335 122.261ZM89.7976 122.886C89.6025 122.62 89.3599 122.411 89.07 122.261C88.7797 122.11 88.4599 122.005 88.11 121.944C87.7598 121.884 87.435 121.854 87.135 121.854V123.857C87.165 123.857 87.215 123.862 87.2851 123.872C87.3549 123.882 87.425 123.91 87.495 123.955C87.5648 124 87.6275 124.063 87.6825 124.143C87.7373 124.223 87.77 124.329 87.78 124.459V126.025H90.0901V123.887C90.0901 123.486 89.9926 123.152 89.7976 122.886ZM90.0903 107.906H73.5002V110.729H90.0903V107.906ZM61.8714 114.494H90.0904V117.318H61.8714V114.494ZM78.4615 121.082H61.8714V123.906H78.4615V121.082Z" fill="white"/>
<defs>
<filter id="filter0_d_0_1" x="0" y="56" width="148" height="148" filterUnits="userSpaceOnUse" color-interpolation-filters="sRGB">
<feFlood flood-opacity="0" result="BackgroundImageFix"/>
<feColorMatrix in="SourceAlpha" type="matrix" values="0 0 0 0 0 0 0 0 0 0 0 0 0 0 0 0 0 0 127 0" result="hardAlpha"/>
<feOffset dy="16"/>
<feGaussianBlur stdDeviation="12"/>
<feColorMatrix type="matrix" values="0 0 0 0 0.303864 0 0 0 0 0.234804 0 0 0 0 0 0 0 0 0.16109 0"/>
<feBlend mode="normal" in2="BackgroundImageFix" result="effect1_dropShadow_0_1"/>
<feBlend mode="normal" in="SourceGraphic" in2="effect1_dropShadow_0_1" result="shape"/>
</filter>
</defs>
</svg>
